# xmcd CD database file
#
# Track frame offsets:
#	150
#	15767
#	28340
#	40320
#	57975
#	68882
#	80390
#	94885
#	110767
#	125812
#	144007
#	159282
#	172657
#
# Disc length: 2531 seconds
#
# Revision: 1
# Processed by: cddbd v1.5.2PL0 Copyright (c) Steve Scherf et al.
# Submitted via: CDex 1.70beta2
#
DISCID=a109e10d
DTITLE=The Instigators - Volume Two
DYEAR=2001
DGENRE=Blues
TTITLE0=Boogie O.D.
TTITLE1=One of these mornings
TTITLE2=What´s on your mind
TTITLE3=Before the sun goes up
TTITLE4=Cool, cool blues
TTITLE5=Done somebody wrong
TTITLE6=Stuff you gotta watch
TTITLE7=Sometimes
TTITLE8=(Don´t you want ) a man like me
TTITLE9=Cool disposition
TTITLE10=You can´t judge a book by its cover
TTITLE11=Be careful
TTITLE12=Running shoes
EXTD=YEAR: 2001
EXTT0=
EXTT1=
EXTT2=
EXTT3=
EXTT4=
EXTT5=
EXTT6=
EXTT7=
EXTT8=
EXTT9=
EXTT10=
EXTT11=
EXTT12=
PLAYORDER=
